{
	"asset":{
		"generator":"Khronos glTF Blender I/O v4.0.44",
		"version":"2.0"
	},
	"scene":0,
	"scenes":[
		{
			"name":"Scene",
			"nodes":[
				0,
				1,
				2,
				3
			]
		}
	],
	"nodes":[
		{
			"mesh":0,
			"name":"door",
			"scale":[
				7.9095282554626465,
				4.812519550323486,
				0.2137027382850647
			],
			"translation":[
				-0.2265896499156952,
				5.6152119636535645,
				9.307668685913086
			]
		},
		{
			"mesh":1,
			"name":"doortext",
			"rotation":[
				0.0029541789554059505,
				0.7071005702018738,
				-0.7071006298065186,
				0.0029541789554059505
			],
			"scale":[
				1.3167139291763306,
				1.3167139291763306,
				1.3167136907577515
			],
			"translation":[
				5.85636568069458,
				5.315064430236816,
				9.071426391601562
			]
		},
		{
			"mesh":2,
			"name":"door2",
			"scale":[
				7.9095282554626465,
				4.812519550323486,
				0.2137027382850647
			],
			"translation":[
				-0.2265896499156952,
				5.6152119636535645,
				101.98517608642578
			]
		},
		{
			"mesh":3,
			"name":"doortext2",
			"rotation":[
				0.0029541789554059505,
				0.7071005702018738,
				-0.7071006298065186,
				0.0029541789554059505
			],
			"scale":[
				1.3167139291763306,
				1.3167139291763306,
				1.3167136907577515
			],
			"translation":[
				5.85636568069458,
				5.315064430236816,
				101.58120727539062
			]
		}
	],
	"materials":[
		{
			"doubleSided":true,
			"name":"Material.003",
			"pbrMetallicRoughness":{
				"baseColorTexture":{
					"index":0
				},
				"metallicFactor":0
			}
		},
		{
			"doubleSided":true,
			"name":"Material.001",
			"pbrMetallicRoughness":{
				"baseColorTexture":{
					"index":1
				},
				"metallicFactor":0,
				"roughnessFactor":0.5
			}
		},
		{
			"doubleSided":true,
			"name":"Material.006",
			"pbrMetallicRoughness":{
				"baseColorTexture":{
					"index":2
				},
				"metallicFactor":0
			}
		},
		{
			"doubleSided":true,
			"name":"Material.008",
			"pbrMetallicRoughness":{
				"baseColorTexture":{
					"index":3
				},
				"metallicFactor":0,
				"roughnessFactor":0.5
			}
		}
	],
	"meshes":[
		{
			"name":"Cube.005",
			"primitives":[
				{
					"attributes":{
						"POSITION":0,
						"NORMAL":1,
						"TEXCOORD_0":2
					},
					"indices":3,
					"material":0
				}
			]
		},
		{
			"name":"Text.001",
			"primitives":[
				{
					"attributes":{
						"POSITION":4,
						"NORMAL":5,
						"TEXCOORD_0":6
					},
					"indices":7,
					"material":1
				}
			]
		},
		{
			"name":"Cube.006",
			"primitives":[
				{
					"attributes":{
						"POSITION":8,
						"NORMAL":9,
						"TEXCOORD_0":10
					},
					"indices":3,
					"material":2
				}
			]
		},
		{
			"name":"Text.002",
			"primitives":[
				{
					"attributes":{
						"POSITION":11,
						"NORMAL":12,
						"TEXCOORD_0":13
					},
					"indices":7,
					"material":3
				}
			]
		}
	],
	"textures":[
		{
			"sampler":0,
			"source":0
		},
		{
			"sampler":0,
			"source":1
		},
		{
			"sampler":0,
			"source":0
		},
		{
			"sampler":0,
			"source":1
		}
	],
	"images":[
		{
			"mimeType":"image/png",
			"name":"door",
			"uri":"door.png"
		},
		{
			"mimeType":"image/png",
			"name":"black",
			"uri":"black.png"
		}
	],
	"accessors":[
		{
			"bufferView":0,
			"componentType":5126,
			"count":24,
			"max":[
				1,
				1,
				1
			],
			"min":[
				-1,
				-1,
				-1
			],
			"type":"VEC3"
		},
		{
			"bufferView":1,
			"componentType":5126,
			"count":24,
			"type":"VEC3"
		},
		{
			"bufferView":2,
			"componentType":5126,
			"count":24,
			"type":"VEC2"
		},
		{
			"bufferView":3,
			"componentType":5123,
			"count":36,
			"type":"SCALAR"
		},
		{
			"bufferView":4,
			"componentType":5126,
			"count":1487,
			"max":[
				9.736000061035156,
				0,
				0.23000000417232513
			],
			"min":[
				0.07000000029802322,
				0,
				-0.6820000410079956
			],
			"type":"VEC3"
		},
		{
			"bufferView":5,
			"componentType":5126,
			"count":1487,
			"type":"VEC3"
		},
		{
			"bufferView":6,
			"componentType":5126,
			"count":1487,
			"type":"VEC2"
		},
		{
			"bufferView":7,
			"componentType":5123,
			"count":4389,
			"type":"SCALAR"
		},
		{
			"bufferView":8,
			"componentType":5126,
			"count":24,
			"max":[
				1,
				1,
				1
			],
			"min":[
				-1,
				-1,
				-1
			],
			"type":"VEC3"
		},
		{
			"bufferView":9,
			"componentType":5126,
			"count":24,
			"type":"VEC3"
		},
		{
			"bufferView":10,
			"componentType":5126,
			"count":24,
			"type":"VEC2"
		},
		{
			"bufferView":11,
			"componentType":5126,
			"count":1487,
			"max":[
				9.736000061035156,
				0,
				0.23000000417232513
			],
			"min":[
				0.07000000029802322,
				0,
				-0.6820000410079956
			],
			"type":"VEC3"
		},
		{
			"bufferView":12,
			"componentType":5126,
			"count":1487,
			"type":"VEC3"
		},
		{
			"bufferView":13,
			"componentType":5126,
			"count":1487,
			"type":"VEC2"
		}
	],
	"bufferViews":[
		{
			"buffer":0,
			"byteLength":288,
			"byteOffset":0,
			"target":34962
		},
		{
			"buffer":0,
			"byteLength":288,
			"byteOffset":288,
			"target":34962
		},
		{
			"buffer":0,
			"byteLength":192,
			"byteOffset":576,
			"target":34962
		},
		{
			"buffer":0,
			"byteLength":72,
			"byteOffset":768,
			"target":34963
		},
		{
			"buffer":0,
			"byteLength":17844,
			"byteOffset":840,
			"target":34962
		},
		{
			"buffer":0,
			"byteLength":17844,
			"byteOffset":18684,
			"target":34962
		},
		{
			"buffer":0,
			"byteLength":11896,
			"byteOffset":36528,
			"target":34962
		},
		{
			"buffer":0,
			"byteLength":8778,
			"byteOffset":48424,
			"target":34963
		},
		{
			"buffer":0,
			"byteLength":288,
			"byteOffset":57204,
			"target":34962
		},
		{
			"buffer":0,
			"byteLength":288,
			"byteOffset":57492,
			"target":34962
		},
		{
			"buffer":0,
			"byteLength":192,
			"byteOffset":57780,
			"target":34962
		},
		{
			"buffer":0,
			"byteLength":17844,
			"byteOffset":57972,
			"target":34962
		},
		{
			"buffer":0,
			"byteLength":17844,
			"byteOffset":75816,
			"target":34962
		},
		{
			"buffer":0,
			"byteLength":11896,
			"byteOffset":93660,
			"target":34962
		}
	],
	"samplers":[
		{
			"magFilter":9729,
			"minFilter":9987
		}
	],
	"buffers":[
		{
			"byteLength":105556,
			"uri":"doors.bin"
		}
	]
}
