{
	"asset":{
		"generator":"Khronos glTF Blender I/O v4.0.44",
		"version":"2.0"
	},
	"scene":0,
	"scenes":[
		{
			"name":"Scene",
			"nodes":[
				0
			]
		}
	],
	"nodes":[
		{
			"mesh":0,
			"name":"Text.015",
			"rotation":[
				0.5,
				-0.5,
				0.5,
				0.5
			],
			"scale":[
				2.503377914428711,
				2.503377914428711,
				2.503377914428711
			],
			"translation":[
				8.319458961486816,
				4.983602046966553,
				-1.7444593906402588
			]
		}
	],
	"materials":[
		{
			"doubleSided":true,
			"name":"Material.088",
			"pbrMetallicRoughness":{
				"baseColorTexture":{
					"index":0
				},
				"metallicFactor":0,
				"roughnessFactor":0.5
			}
		}
	],
	"meshes":[
		{
			"name":"Text.017",
			"primitives":[
				{
					"attributes":{
						"POSITION":0,
						"NORMAL":1,
						"TEXCOORD_0":2
					},
					"indices":3,
					"material":0
				}
			]
		}
	],
	"textures":[
		{
			"sampler":0,
			"source":0
		}
	],
	"images":[
		{
			"mimeType":"image/png",
			"name":"black",
			"uri":"black.png"
		}
	],
	"accessors":[
		{
			"bufferView":0,
			"componentType":5126,
			"count":381,
			"max":[
				1.3410000801086426,
				0,
				0.009000000543892384
			],
			"min":[
				0.049000002443790436,
				0,
				-0.7260000109672546
			],
			"type":"VEC3"
		},
		{
			"bufferView":1,
			"componentType":5126,
			"count":381,
			"type":"VEC3"
		},
		{
			"bufferView":2,
			"componentType":5126,
			"count":381,
			"type":"VEC2"
		},
		{
			"bufferView":3,
			"componentType":5123,
			"count":1125,
			"type":"SCALAR"
		}
	],
	"bufferViews":[
		{
			"buffer":0,
			"byteLength":4572,
			"byteOffset":0,
			"target":34962
		},
		{
			"buffer":0,
			"byteLength":4572,
			"byteOffset":4572,
			"target":34962
		},
		{
			"buffer":0,
			"byteLength":3048,
			"byteOffset":9144,
			"target":34962
		},
		{
			"buffer":0,
			"byteLength":2250,
			"byteOffset":12192,
			"target":34963
		}
	],
	"samplers":[
		{
			"magFilter":9729,
			"minFilter":9987
		}
	],
	"buffers":[
		{
			"byteLength":14444,
			"uri":"math3.bin"
		}
	]
}
